<svg width="162" height="24" viewBox="0 0 162 24" fill="none" xmlns="http://www.w3.org/2000/svg">
<g id="Group">
<path id="Vector" d="M12.4957 6.85476C11.7195 5.8634 10.1671 5.39462 8.99135 5.39462C7.63112 5.39462 5.73295 6.0171 5.73295 7.66168C5.73295 11.6578 15.8386 9.09107 15.8386 16.776C15.8386 21.679 11.9039 23.9998 7.37752 23.9998C4.55716 23.9998 2.07493 23.1622 0 21.2409L3.44284 17.4599C4.4342 18.7664 6.04803 19.5349 7.66186 19.5349C9.24496 19.5349 11.0125 18.7894 11.0125 17.2371C11.0125 13.2102 0.722382 15.3773 0.722382 8.06129C0.722382 3.38118 4.7877 0.929688 9.09126 0.929688C11.5735 0.929688 13.9558 1.58291 15.8156 3.22748L12.4957 6.85476Z" fill="#0F0F2C"/>
<path id="Vector_2" d="M27.8732 12.0882H23.7772V17.1142C23.7772 18.728 23.9616 19.9038 25.9751 19.9038C26.4746 19.9038 27.4659 19.8423 27.8656 19.4735V23.3467C26.8435 23.7155 25.6984 23.8154 24.6072 23.8154C21.5101 23.8154 19.1201 22.5474 19.1201 19.2583V12.0959H16.1461V8.37643H19.1201V3.90381H23.7695V8.36875H27.8656V12.0882H27.8732Z" fill="#0F0F2C"/>
<path id="Vector_3" d="M43.4966 23.4388H39.0317V21.3946H38.9702C38.3477 22.5704 36.8338 23.8153 34.5667 23.8153C29.8559 23.8153 28.9875 20.7106 28.9875 16.6837V8.36865H33.6369V15.7462C33.6369 17.483 33.6676 19.7193 36.0576 19.7193C38.4784 19.7193 38.8472 17.8288 38.8472 15.8768V8.37634H43.4966V23.4388Z" fill="#0F0F2C"/>
<path id="Vector_4" d="M61.3564 23.439H57.0759V21.4563H57.0145C56.2998 22.5399 54.5015 23.8156 52.3958 23.8156C47.9309 23.8156 44.9875 20.5879 44.9875 16.0307C44.9875 11.8425 47.5927 8 51.8732 8C53.7945 8 55.5927 8.53026 56.6456 9.98271H56.7071V0H61.3564V23.439ZM53.3564 12.0884C51.0279 12.0884 49.6369 13.6407 49.6369 15.9001C49.6369 18.1595 51.0356 19.7118 53.3564 19.7118C55.685 19.7118 57.0759 18.1595 57.0759 15.9001C57.0759 13.6407 55.6773 12.0884 53.3564 12.0884Z" fill="#0F0F2C"/>
<path id="Vector_5" d="M78.0941 20.8337C76.6032 22.7242 74.1594 23.8077 71.7387 23.8077C67.0893 23.8077 63.3698 20.703 63.3698 15.9C63.3698 11.0969 67.0893 7.99219 71.7387 7.99219C76.0807 7.99219 78.8088 11.0892 78.8088 15.9V17.3601H68.0192C68.3881 19.1276 69.7252 20.2727 71.5235 20.2727C73.0451 20.2727 74.0672 19.4965 74.8434 18.4437L78.0941 20.8337ZM74.1594 14.2016C74.1902 12.6492 72.9836 11.3505 71.3083 11.3505C69.2641 11.3505 68.1421 12.7492 68.0192 14.2016H74.1594Z" fill="#0F0F2C"/>
<path id="Vector_6" d="M80.3843 8.36875H84.8493V10.4129H84.9107C85.5332 9.23714 87.0472 7.99219 89.3142 7.99219C94.0251 7.99219 94.8934 11.0892 94.8934 15.1238V23.4389H90.2441V16.0614C90.2441 14.3246 90.2133 12.0959 87.8233 12.0959C85.4026 12.0959 85.0337 13.9864 85.0337 15.9384V23.4389H80.3843V8.36875Z" fill="#0F0F2C"/>
<path id="Vector_7" d="M107.205 12.0882H103.109V17.1142C103.109 18.728 103.293 19.9038 105.306 19.9038C105.806 19.9038 106.797 19.8423 107.197 19.4735V23.3467C106.175 23.7155 105.03 23.8154 103.939 23.8154C100.841 23.8154 98.4515 22.5474 98.4515 19.2583V12.0959H95.4774V8.37643H98.4515V3.90381H103.101V8.36875H107.197V12.0882H107.205Z" fill="#0F0F2C"/>
<path id="Vector_8" d="M109.679 1.49072H111.723V11.166H124.004V1.49072H126.048V23.4388H124.004V13.0181H111.723V23.4388H109.679V1.49072Z" fill="#0F0F2C"/>
<path id="Vector_9" d="M142.425 19.4119C142.425 20.4648 142.578 22.7011 142.578 23.4465H140.719C140.688 22.3937 140.657 21.2102 140.596 20.9335H140.503C139.758 22.5166 137.929 23.8154 135.6 23.8154C131.136 23.8154 130.144 20.7798 130.144 17.6444V9.11413H132.004V17.5445C132.004 19.873 132.657 22.1324 135.6 22.1324C138.359 22.1324 140.565 20.2112 140.565 16.2688V9.10645H142.425V19.4119Z" fill="#0F0F2C"/>
<path id="Vector_10" d="M145.891 0H147.75V11.6273H147.812C148.957 9.64457 151.408 8.74544 153.545 8.74544C157.948 8.74544 161.076 11.9116 161.076 16.2767C161.076 20.6494 157.948 23.8079 153.545 23.8079C151.408 23.8079 148.957 22.9087 147.812 20.926H147.75V23.439H145.891V0ZM153.552 22.1402C157.057 22.1402 159.224 19.5043 159.224 16.2767C159.224 13.049 157.057 10.4207 153.552 10.4207C150.171 10.4207 147.566 13.0567 147.566 16.2767C147.566 19.4966 150.171 22.1402 153.552 22.1402Z" fill="#0F0F2C"/>
</g>
</svg>
