<svg width="128" height="128" viewBox="0 0 128 128" fill="none" xmlns="http://www.w3.org/2000/svg">
<g id="rocket 1">
<path id="Vector" d="M3.1104 123.915C2.74986 123.915 2.39786 123.731 2.19733 123.403C1.89653 122.906 2.048 122.261 2.53653 121.948L10.9547 116.589L6.07573 119.405C5.57866 119.697 4.94506 119.537 4.63786 119.049C4.3328 118.56 4.46933 117.922 4.94506 117.598L25.3333 103.772L8.77653 113.329C8.2752 113.617 7.6416 113.459 7.33653 112.969C7.03146 112.478 7.17226 111.838 7.65013 111.518L19.6864 103.505L10.3851 108.875C9.8816 109.165 9.248 109.001 8.94293 108.512C8.64 108.021 8.78293 107.377 9.26506 107.059L14.5109 103.616L11.5733 105.312C11.0869 105.602 10.4597 105.449 10.1461 104.971C9.83466 104.495 9.952 103.861 10.4107 103.529L26.5024 91.7676L13.6747 99.1724C13.1776 99.4626 12.5483 99.3047 12.2411 98.8204C11.9339 98.3362 12.064 97.7004 12.5333 97.3719L19.4475 92.5719L15.4389 94.8844C14.9568 95.1703 14.3339 95.0188 14.0203 94.558C13.7088 94.093 13.8069 93.4636 14.2507 93.1202L25.2331 84.5719L19.5477 87.853C19.0613 88.1367 18.4363 87.9874 18.1269 87.5223C17.8155 87.053 17.92 86.4236 18.368 86.0823L24.1899 81.6428C24.0405 81.5532 23.9104 81.4252 23.8187 81.2631C23.5221 80.7532 23.6971 80.1004 24.2091 79.806L34.1205 74.0823C34.6027 73.7964 35.2299 73.9479 35.5413 74.413C35.8528 74.8823 35.7483 75.5116 35.3003 75.853L32.928 77.662L37.5616 74.989C38.0437 74.7031 38.6667 74.8546 38.9803 75.3154C39.2917 75.7804 39.1936 76.4098 38.7499 76.7532L27.7675 85.3015L40.5227 77.9394C41.0176 77.6492 41.6491 77.8071 41.9563 78.2914C42.2635 78.7756 42.1333 79.4114 41.664 79.7399L34.7413 84.5463L42.6005 80.0108C43.0891 79.7271 43.7163 79.8764 44.0277 80.3522C44.3392 80.8279 44.2219 81.4615 43.7632 81.7943L27.6779 93.5511L45.728 83.1298C46.2293 82.8396 46.8651 83.0018 47.1701 83.4924C47.4731 83.9831 47.3301 84.6274 46.848 84.9452L41.5787 88.4034L47.5563 84.9538C48.0555 84.6615 48.6891 84.8215 48.9963 85.3143C49.3013 85.8028 49.1605 86.445 48.6827 86.765L36.6677 94.765L49.7941 87.1852C50.2933 86.8951 50.9269 87.0551 51.232 87.5415C51.5371 88.03 51.4005 88.6679 50.9248 88.9922L30.5344 102.82L52.6613 90.046C53.1669 89.7559 53.8069 89.9202 54.1077 90.4151C54.4085 90.9122 54.2571 91.5564 53.7685 91.87L45.3483 97.2311L52.1173 93.3228C52.6165 93.0348 53.2501 93.1906 53.5552 93.6791C53.8603 94.1676 53.7237 94.8055 53.248 95.1298L39.2939 104.583L49.3632 98.7692C49.8432 98.4834 50.4683 98.6327 50.7797 99.0935C51.0933 99.5586 50.9973 100.186 50.5557 100.531L42.8245 106.601C43.1659 106.626 43.488 106.814 43.6693 107.132C43.9659 107.642 43.7909 108.295 43.2789 108.589L31.9296 115.14C31.4453 115.422 30.8245 115.277 30.5131 114.816C30.1995 114.351 30.2976 113.724 30.7371 113.378L37.4421 108.115L14.6283 121.287C14.1333 121.579 13.4976 121.419 13.1904 120.93C12.8853 120.442 13.0219 119.804 13.4976 119.48L27.4539 110.025L3.64586 123.77C3.47733 123.868 3.29386 123.913 3.11253 123.913L3.1104 123.915Z" fill="#EB5757"/>
<path id="Vector_2" d="M22.7456 109.314C22.4021 109.314 22.0672 109.148 21.8603 108.843C21.5488 108.376 21.6469 107.748 22.0907 107.405L32.2496 99.5073L20.1856 106.473C19.7035 106.756 19.0784 106.611 18.7648 106.144C18.4533 105.677 18.5557 105.048 19.0016 104.704L31.4283 95.1489L22.3637 100.382C21.8752 100.666 21.2437 100.514 20.9323 100.036C20.6229 99.5564 20.7467 98.9206 21.2117 98.59L24.1365 96.5078C23.6672 96.7468 23.0827 96.6145 22.7733 96.1814C22.4555 95.7313 22.528 95.1148 22.944 94.7542L30.3765 88.335C29.9755 88.399 29.5211 88.207 29.2949 87.8145C28.9984 87.3046 29.1733 86.6518 29.6853 86.3574L38.7755 81.1094C39.2448 80.83 39.8571 80.9644 40.1771 81.4145C40.4949 81.8646 40.4224 82.4812 40.0064 82.8417L32.8683 89.0049L42.528 83.4284C43.0165 83.1382 43.648 83.294 43.9595 83.774C44.2688 84.254 44.1451 84.8897 43.68 85.2204L40.7659 87.2961L44.3456 85.2289C44.8299 84.9452 45.4528 85.0924 45.7664 85.5574C46.0779 86.0246 45.9755 86.654 45.5296 86.9974L33.1029 96.5526L44.6272 89.9009C45.1093 89.6172 45.7301 89.7644 46.0459 90.2273C46.3573 90.6945 46.2592 91.3217 45.8155 91.6652L35.6501 99.567L40.0384 97.0348C40.5483 96.7361 41.2011 96.9132 41.4955 97.4252C41.792 97.935 41.6171 98.5878 41.1051 98.8822L23.2789 109.173C23.1125 109.272 22.9269 109.314 22.7456 109.314Z" fill="#F0C74B"/>
<path id="Vector_3" d="M54.1931 92.5676C53.8517 92.5676 53.5147 92.4012 53.3099 92.0983C52.9963 91.6332 53.0923 91.006 53.5339 90.6604L54.2784 90.0759L52.3989 91.1617C51.9232 91.4433 51.3131 91.3047 50.9952 90.8545C50.6773 90.4044 50.7541 89.7857 51.1723 89.4273L55.0037 86.1505L50.1632 88.9452C49.6811 89.2268 49.0603 89.0839 48.7488 88.6231C48.4352 88.1601 48.5291 87.5351 48.9685 87.1873L50.7136 85.8007L48.3712 87.1532C47.904 87.4305 47.296 87.3004 46.976 86.8567C46.656 86.4151 46.72 85.8028 47.1232 85.438L51.9104 81.1265L45.8432 84.6295C45.3611 84.9111 44.7403 84.7681 44.4267 84.3052C44.1152 83.8423 44.2091 83.2172 44.6485 82.8695L46.1952 81.6492L44.0832 82.8673C43.6181 83.1383 43.0187 83.0145 42.6944 82.5793C42.3723 82.1441 42.4256 81.5361 42.8224 81.1649L48.1429 76.1793L41.3312 80.1132C40.8469 80.3969 40.2261 80.2497 39.9147 79.7868C39.6011 79.3217 39.6992 78.6945 40.1408 78.3511L41.2523 77.4807L39.6309 78.4151C39.1659 78.6924 38.5557 78.5623 38.2357 78.1185C37.9157 77.6769 37.9797 77.0625 38.3851 76.6977L43.1232 72.4396L37.3931 75.7463C36.9088 76.0279 36.2901 75.8849 35.9787 75.4241C35.6651 74.9612 35.7589 74.3361 36.1984 73.9884L37.6725 72.8172L36.8875 73.2695C36.4224 73.5383 35.8251 73.4188 35.5008 72.9857C35.1787 72.5527 35.2277 71.9468 35.6203 71.5735L39.8912 67.5031L39.2405 67.8785C38.784 68.1452 38.1973 68.0321 37.8667 67.614C37.5403 67.1959 37.568 66.5985 37.9371 66.2167L41.4741 62.5367C41.44 62.4961 41.4123 62.4535 41.3845 62.4065C41.0901 61.8967 41.2651 61.2439 41.7771 60.9473L44.6528 59.2897C45.1093 59.0273 45.6981 59.1404 46.0267 59.5564C46.3531 59.9745 46.3253 60.5719 45.9563 60.9537L44.6955 62.2636L46.56 61.1884C47.0208 60.9153 47.6203 61.0391 47.9467 61.4721C48.2688 61.9052 48.2197 62.5111 47.8272 62.8844L43.5563 66.9548L49.12 63.742C49.6 63.4561 50.2208 63.6012 50.5344 64.0641C50.848 64.5271 50.7541 65.1521 50.3147 65.4999L48.8363 66.6753L50.88 65.4956C51.3493 65.2225 51.9573 65.3484 52.2752 65.7921C52.5952 66.2337 52.5312 66.8481 52.1259 67.2129L47.392 71.4668L53.3931 68.0023C53.8752 67.7164 54.4981 67.8657 54.8096 68.3287C55.1232 68.7937 55.0251 69.4209 54.5835 69.7644L53.472 70.6348L55.0976 69.6983C55.5605 69.4252 56.1621 69.5489 56.4864 69.9863C56.8085 70.4215 56.7552 71.0295 56.3584 71.4007L51.0336 76.3905L57.8581 72.4503C58.3381 72.1644 58.9589 72.3095 59.2747 72.7745C59.5861 73.2375 59.4923 73.8625 59.0528 74.2103L57.5147 75.4241L59.6224 74.2081C60.0917 73.9351 60.6997 74.0609 61.0176 74.5047C61.3376 74.9463 61.2736 75.5585 60.8704 75.9233L56.0853 80.2348L62.1525 76.7319C62.6325 76.4481 63.2555 76.5911 63.5669 77.054C63.8805 77.5169 63.7867 78.142 63.3472 78.4897L61.5957 79.8807L63.9509 78.5217C64.4203 78.2423 65.0368 78.3767 65.3547 78.8289C65.6725 79.2791 65.5957 79.8977 65.1776 80.2561L61.344 83.5329L66.1803 80.7425C66.6603 80.4588 67.2853 80.6039 67.5968 81.0668C67.9104 81.5319 67.8144 82.1591 67.3728 82.5047L66.6411 83.0785L67.2981 82.7009C67.808 82.4023 68.4629 82.5793 68.7552 83.0913C69.0517 83.6012 68.8768 84.254 68.3648 84.5484L54.7243 92.4247C54.5579 92.5228 54.3744 92.5676 54.1931 92.5676Z" fill="#C5C5CC"/>
<g id="Group">
<path id="Vector_4" d="M7.8464 70.016C7.49013 70.016 7.14453 69.8368 6.94187 69.5147C6.6368 69.0261 6.77333 68.3861 7.2512 68.064L21.8581 58.2336L6.7648 66.9483C6.26347 67.2427 5.62133 67.0763 5.32053 66.5792C5.0176 66.0843 5.16907 65.44 5.65547 65.1264L6.87147 64.3477C6.44693 64.4501 5.99467 64.2603 5.75147 63.872C5.44427 63.3856 5.57867 62.7456 6.05227 62.4213L17.9584 54.2891L15.0741 55.9531C14.5963 56.2325 13.9819 56.0939 13.6661 55.6395C13.3504 55.1851 13.4336 54.5621 13.8603 54.2101L25.1051 44.8939C24.9451 44.8043 24.8064 44.672 24.7083 44.4992C24.4117 43.9893 24.5867 43.3365 25.0987 43.0421L32.576 38.7264C33.056 38.4469 33.6683 38.5835 33.984 39.04C34.2997 39.4944 34.2165 40.1173 33.7899 40.4693L24.9643 47.7803L41.3184 38.3381C41.8176 38.048 42.4491 38.208 42.7541 38.6923C43.0613 39.1787 42.9269 39.8187 42.4533 40.1429L30.5387 48.2773L45.4336 39.68C45.9392 39.3877 46.5771 39.5541 46.8779 40.0491C47.1808 40.544 47.0293 41.1883 46.5429 41.5019L46.3211 41.6427L47.6245 40.8896C48.1216 40.5973 48.7552 40.7573 49.0624 41.248C49.3675 41.7365 49.2309 42.3765 48.7531 42.6987L34.1397 52.5333L50.1696 43.2789C50.6389 43.008 51.2491 43.136 51.5669 43.5776C51.8869 44.0213 51.8208 44.6357 51.4112 44.9984L44.0341 51.5669L49.5829 48.3648C50.0907 48.0661 50.7456 48.2432 51.04 48.7552C51.3365 49.2651 51.1616 49.9179 50.6496 50.2123L36.0661 58.6325C35.6011 58.9077 34.9888 58.7776 34.6688 58.3339C34.3488 57.8901 34.4149 57.2757 34.8245 56.9131L42.2059 50.3403L8.3776 69.8688C8.20907 69.9669 8.0256 70.0117 7.84427 70.0117L7.8464 70.016Z" fill="#4C70F2"/>
<path id="Vector_5" d="M62.8715 122.87C62.5365 122.87 62.2059 122.712 62.0011 122.419C61.6832 121.969 61.76 121.351 62.1781 120.992L65.5317 118.125L59.8656 121.395C59.3771 121.681 58.7456 121.528 58.4363 121.052C58.1269 120.576 58.2464 119.94 58.7072 119.608L65.7664 114.505L58.4683 118.718C57.9819 119.006 57.3547 118.855 57.0411 118.377C56.7296 117.901 56.8469 117.267 57.3056 116.935L71.4091 106.631L61.2821 112.476C60.7957 112.764 60.1664 112.612 59.8549 112.137C59.5456 111.661 59.6608 111.027 60.1173 110.692L72.8171 101.363L65.8688 105.374C65.3781 105.66 64.7488 105.506 64.4416 105.033C64.1301 104.557 64.2496 103.921 64.7083 103.588L71.9467 98.3234L68.4565 100.335C67.9723 100.619 67.3515 100.472 67.04 100.009C66.7264 99.5458 66.8245 98.9186 67.264 98.573L75.4709 92.1496L70.3915 95.0808C69.9157 95.3581 69.3056 95.2258 68.9899 94.7757C68.672 94.3298 68.7445 93.7133 69.1584 93.3528L77.1797 86.3768L71.2704 89.788C70.7947 90.0696 70.1867 89.9309 69.8688 89.4829C69.5509 89.0328 69.6235 88.4162 70.0395 88.0578L75.2235 83.58C74.9013 83.6077 74.5835 83.4562 74.3659 83.1938C74.0352 82.7949 74.0395 82.2146 74.3765 81.82L79.2192 76.1453C79.0869 75.6845 79.2768 75.1789 79.7099 74.9293L80.9472 74.2146C81.3931 73.9522 81.9669 74.0546 82.3019 74.4557C82.6325 74.8546 82.6283 75.4349 82.2912 75.8296L80.0213 78.492L83.4048 76.54C83.8827 76.2605 84.4907 76.3992 84.8064 76.845C85.1243 77.2952 85.0517 77.9117 84.6357 78.2701L79.9595 82.3106L85.7024 78.9954C86.1781 78.7181 86.7861 78.8482 87.104 79.3005C87.4219 79.7464 87.3493 80.3629 86.9355 80.7234L78.9141 87.6994L87.5285 82.7266C88.0128 82.4429 88.6357 82.5901 88.9451 83.053C89.2587 83.516 89.1605 84.1432 88.7211 84.4888L80.5141 90.9122L88.3925 86.364C88.8789 86.0738 89.5125 86.2317 89.8197 86.7053C90.1312 87.181 90.0117 87.8168 89.5531 88.1496L82.3189 93.4125L88.5312 89.8264C89.0197 89.5426 89.6491 89.692 89.9584 90.1656C90.2677 90.6413 90.1525 91.2749 89.696 91.6098L76.9941 100.941L87.5413 94.8525C88.0299 94.5666 88.6571 94.7181 88.9685 95.1938C89.28 95.6696 89.1627 96.3032 88.704 96.636L74.6069 106.936L82.7392 102.24C83.2256 101.952 83.8571 102.106 84.1685 102.584C84.4779 103.059 84.3584 103.695 83.8976 104.028L75.1509 110.349C75.4432 110.385 75.7184 110.539 75.8997 110.793C76.2176 111.243 76.1408 111.862 75.7227 112.22L67.9723 118.842L67.9765 118.85C68.2731 119.36 68.0981 120.013 67.5861 120.307L63.4027 122.724C63.2363 122.823 63.0528 122.867 62.8693 122.867L62.8715 122.87Z" fill="#4C70F2"/>
<path id="Vector_6" d="M118.801 41.1862C118.532 41.1862 118.268 41.0859 118.063 40.8897C117.722 40.5633 117.636 40.0491 117.852 39.6289L118.752 37.8923L117.122 38.831C116.668 39.0977 116.087 38.9867 115.757 38.575C115.426 38.1654 115.445 37.5745 115.802 37.1883L117.248 35.6118L115.125 36.8363C114.66 37.1073 114.059 36.9857 113.739 36.5505C113.414 36.1174 113.466 35.5115 113.86 35.1382L116.585 32.5569L112.947 34.6561C112.474 34.9377 111.863 34.7969 111.546 34.351C111.228 33.9009 111.3 33.2843 111.716 32.9238L115.541 29.6235L110.705 32.4139C110.223 32.6955 109.602 32.5526 109.289 32.0897C108.977 31.6267 109.071 30.9995 109.51 30.6539L113.026 27.8806L108.678 30.3915C108.192 30.6817 107.565 30.5259 107.253 30.0545C106.942 29.583 107.055 28.9494 107.509 28.6123L110.146 26.6518L106.844 28.559C106.362 28.8406 105.747 28.6977 105.431 28.2433C105.118 27.7846 105.207 27.1617 105.638 26.8097L114.805 19.343L103.917 25.6278C103.43 25.9158 102.803 25.7622 102.492 25.2907C102.18 24.8193 102.293 24.1857 102.748 23.8486L110.125 18.3723L101.587 23.3025C101.103 23.5883 100.482 23.4369 100.171 22.9782C99.8571 22.5131 99.9552 21.8859 100.395 21.5403L112.105 12.3563L98.4981 20.2134C98.016 20.495 97.3973 20.3499 97.0837 19.8934C96.7701 19.4326 96.8619 18.8075 97.2992 18.4598L107.599 10.1931L95.4752 17.1905C94.9867 17.4742 94.3659 17.3249 94.0523 16.8577C93.7408 16.3883 93.8475 15.7569 94.2976 15.4177L99.2021 11.6971L93.3568 15.0721C92.9003 15.343 92.3072 15.2278 91.9787 14.8011C91.6523 14.3809 91.6864 13.7814 92.0619 13.4017L96.9408 8.43526L90.4576 12.1771C90.0565 12.4054 89.5595 12.3585 89.216 12.0491C88.8725 11.7441 88.7616 11.2534 88.9451 10.831L89.4677 9.61713L88.4715 10.1931C87.9595 10.4897 87.3067 10.3126 87.0144 9.80273C86.7179 9.29286 86.8928 8.64006 87.4048 8.34566L91.1893 6.16113C91.5904 5.93286 92.0875 5.9798 92.4309 6.28913C92.7744 6.5942 92.8853 7.08486 92.7019 7.50726L92.1771 8.72113L102.656 2.67313C103.115 2.40433 103.708 2.51953 104.034 2.94406C104.361 3.36433 104.326 3.9638 103.951 4.34353L99.0741 9.3078L112.864 1.34833C113.348 1.06246 113.971 1.2118 114.287 1.68113C114.598 2.15046 114.492 2.78193 114.042 3.12113L109.133 6.8438L118.607 1.37606C119.089 1.0902 119.706 1.2374 120.021 1.69606C120.335 2.15686 120.243 2.78193 119.806 3.12966L109.51 11.3921L124.083 2.98033C124.565 2.6966 125.188 2.84593 125.5 3.3046C125.813 3.76966 125.715 4.39686 125.276 4.74246L113.562 13.9286L125.114 7.2598C125.602 6.97606 126.227 7.12753 126.539 7.59686C126.85 8.07046 126.737 8.70193 126.283 9.039L118.906 14.5131L125.261 10.8459C125.741 10.5643 126.357 10.7073 126.673 11.1617C126.987 11.6203 126.897 12.2433 126.466 12.5953L117.303 20.0598L125.086 15.567C125.574 15.2811 126.199 15.4347 126.511 15.9041C126.822 16.3777 126.709 17.0091 126.255 17.3462L123.614 19.3089L124.774 18.6411C125.252 18.3574 125.875 18.5003 126.191 18.9654C126.502 19.4283 126.409 20.0555 125.969 20.4011L122.447 23.1787L124.235 22.1483C124.713 21.8689 125.321 22.0075 125.636 22.4534C125.954 22.9035 125.879 23.5201 125.466 23.8806L121.643 27.1809L123.354 26.1931C123.819 25.9201 124.42 26.0438 124.74 26.479C125.065 26.9121 125.013 27.5179 124.619 27.8913L121.894 30.4726L122.191 30.3019C122.645 30.0353 123.226 30.1462 123.556 30.5579C123.887 30.9675 123.868 31.5585 123.511 31.9446L121.536 34.0993C121.747 34.1334 121.946 34.2294 122.11 34.383C122.451 34.7094 122.537 35.2235 122.321 35.6438L120.471 39.2214C120.732 39.7227 120.553 40.3478 120.058 40.6358L119.334 41.0518C119.168 41.1478 118.985 41.1926 118.801 41.1926V41.1862Z" fill="#4C70F2"/>
</g>
<path id="Vector_7" d="M66.7776 89.5C66.4256 89.5 66.08 89.325 65.8773 89.0072C65.5701 88.525 65.6981 87.8872 66.1675 87.5586L83.9893 75.0978L64.0832 86.5922C63.5819 86.8845 62.9419 86.7224 62.6411 86.2274C62.3381 85.7368 62.4832 85.0925 62.9653 84.7746L77.248 75.4456L61.8283 84.3458C61.3291 84.6381 60.6869 84.476 60.384 83.9789C60.0811 83.4861 60.2304 82.8418 60.7147 82.5261L78.0032 71.356L59.5093 82.0333C59.008 82.3256 58.3701 82.1634 58.0672 81.6685C57.7643 81.1778 57.9093 80.5336 58.3915 80.2157L84.8789 62.9272L56.6784 79.2066C56.1792 79.4989 55.5435 79.3346 55.2363 78.844C54.9333 78.3533 55.0763 77.709 55.5584 77.3912L85.3355 57.8349L53.6171 76.1474C53.1157 76.4397 52.4757 76.2775 52.1728 75.7805C51.8699 75.2834 52.0192 74.6413 52.5056 74.3256L76.5653 58.844L51.0464 73.5746C50.5451 73.869 49.9029 73.7026 49.6 73.2034C49.2992 72.7064 49.4528 72.06 49.9435 71.7485L65.3589 62.029L48.9664 71.4925C48.4651 71.7869 47.8229 71.6205 47.52 71.1213C47.2192 70.6264 47.3707 69.98 47.8592 69.6685L67.4005 57.2397L46.6816 69.2013C46.1803 69.4957 45.536 69.3272 45.2331 68.828C44.9323 68.3309 45.0901 67.6824 45.5808 67.373L57.6683 59.7954L44.7424 67.2578C44.2347 67.5522 43.5947 67.3837 43.2939 66.8824C42.9931 66.3853 43.1509 65.7368 43.6437 65.4296L52.1941 60.0984L42.9333 65.4445C42.4341 65.7368 41.7941 65.5746 41.4891 65.0797C41.1861 64.5869 41.3333 63.9426 41.8176 63.6269L68.6741 46.1847L40.3115 62.5602C39.8059 62.8525 39.1595 62.684 38.8629 62.1848C38.5621 61.6856 38.7221 61.037 39.2149 60.7298L42.6709 58.588L39.7333 60.284C39.232 60.5784 38.5899 60.4119 38.2869 59.9128C37.9861 59.4178 38.1376 58.7714 38.6283 58.4599L56.1195 47.3559L41.4677 55.8146C40.9643 56.109 40.3264 55.9426 40.0213 55.4456C39.7205 54.9506 39.872 54.3042 40.3584 53.9906L56.5845 43.6311L44.3435 50.6968C43.8421 50.9911 43.1979 50.8248 42.8971 50.3256C42.5963 49.8306 42.7477 49.1842 43.2363 48.8728L52.5803 42.9357L47.4176 45.9138C46.9227 46.2039 46.2869 46.0461 45.9797 45.5575C45.6747 45.0712 45.8091 44.4333 46.2848 44.109L68.0277 29.3101L53.6896 37.5874C53.2011 37.8797 52.5632 37.7197 52.2539 37.2354C51.9488 36.7512 52.0789 36.1133 52.5483 35.7869L67.8699 25.1757L61.7856 28.6872C61.2907 28.9773 60.6613 28.8194 60.3541 28.3394C60.0448 27.8594 60.1707 27.2237 60.6357 26.893L72.8341 18.253C72.6763 18.1634 72.5355 18.0312 72.4373 17.8584C72.1408 17.3485 72.3157 16.6957 72.8277 16.4013L87.072 8.17728C87.5605 7.88928 88.1963 8.04502 88.5035 8.52502C88.8128 9.00502 88.6869 9.64075 88.2219 9.97142L80.6464 15.3368L89.2608 10.364C89.7579 10.0759 90.3893 10.2359 90.6965 10.716C91.0016 11.2002 90.8715 11.8381 90.4021 12.1645L75.0976 22.765L91.9424 13.0392C92.4416 12.7512 93.0752 12.9069 93.3803 13.3954C93.6853 13.8818 93.5509 14.5197 93.0752 14.844L71.3216 29.6472L94.9269 16.0194C95.4304 15.7272 96.0725 15.8914 96.3733 16.3906C96.6741 16.8856 96.5227 17.532 96.0341 17.8434L86.6901 23.7805L96.8363 17.9245C97.3397 17.6322 97.9797 17.7986 98.2827 18.2936C98.5835 18.7885 98.432 19.4349 97.9456 19.7485L81.7131 30.1122L99.0315 20.1133C99.5371 19.821 100.177 19.9853 100.478 20.4845C100.779 20.9794 100.627 21.6258 100.137 21.9373L82.656 33.0349L101.233 22.3106C101.737 22.0141 102.383 22.1826 102.682 22.6861C102.982 23.1853 102.822 23.8338 102.33 24.141L98.8693 26.285L102.891 23.964C103.392 23.6717 104.03 23.8338 104.335 24.3288C104.638 24.8216 104.491 25.4658 104.006 25.7816L77.1541 43.2194L105.681 26.7501C106.187 26.4536 106.827 26.6221 107.13 27.1256C107.43 27.6226 107.273 28.2712 106.78 28.5784L98.2635 33.8882L107.494 28.5592C108 28.2669 108.642 28.4333 108.943 28.9325C109.244 29.4317 109.086 30.0781 108.595 30.3874L96.4821 37.98L109.438 30.5005C109.941 30.2082 110.583 30.3725 110.884 30.8717C111.185 31.3666 111.034 32.013 110.545 32.3245L90.9845 44.764L111.729 32.7896C112.235 32.4973 112.875 32.6637 113.175 33.1608C113.476 33.6578 113.323 34.3042 112.832 34.6157L97.4101 44.3394L113.811 34.8717C114.313 34.5794 114.953 34.7458 115.255 35.2386C115.558 35.7336 115.409 36.3778 114.923 36.6936L90.8779 52.1645L116.384 37.4402C116.885 37.148 117.521 37.3144 117.826 37.8029C118.129 38.2936 117.986 38.9378 117.504 39.2557L87.7141 58.8205L117.572 41.5832C118.074 41.2909 118.711 41.4552 119.014 41.948C119.317 42.4408 119.172 43.0829 118.69 43.4007L92.2133 60.6829L113.826 48.205C114.327 47.9106 114.967 48.077 115.27 48.5719C115.573 49.0669 115.424 49.709 114.94 50.0247L97.6427 61.2013L109.707 54.236C110.21 53.9437 110.846 54.1058 111.149 54.6007C111.452 55.0914 111.307 55.7357 110.825 56.0536L96.5653 65.3656L104.252 60.9304C104.742 60.6424 105.378 60.7981 105.685 61.2802C105.993 61.7624 105.865 62.4002 105.395 62.7288L87.5627 75.1981L92.8363 72.1538C93.344 71.8551 93.9989 72.0322 94.2933 72.5442C94.5899 73.0541 94.4149 73.7069 93.9029 74.0013L67.3067 89.3549C67.1381 89.453 66.9547 89.4978 66.7733 89.4978L66.7776 89.5Z" fill="#DEE5FF"/>
<path id="Vector_8" d="M33.1499 94.6326C32.8021 94.6326 32.4608 94.4598 32.256 94.1462C31.9445 93.6705 32.0619 93.0369 32.5205 92.702L43.0229 85.0433L36.1984 88.9836C35.7035 89.2758 35.0677 89.1158 34.7605 88.6273C34.4555 88.1409 34.5899 87.503 35.0656 87.1788L39.7675 83.9809C39.3152 84.1388 38.7925 83.9724 38.5216 83.5542C38.2101 83.0764 38.3296 82.4428 38.7883 82.11L50.4 73.679L47.9275 75.1062C47.4411 75.3942 46.816 75.2406 46.5024 74.7692C46.1909 74.2934 46.304 73.6598 46.7605 73.3249L56.3157 66.27C56.2624 66.2124 56.2112 66.1441 56.1728 66.0737C55.8763 65.5638 56.0512 64.911 56.5632 64.6166L65.7387 59.3217C66.2315 59.0358 66.8523 59.1894 67.1637 59.6609C67.4752 60.1324 67.3621 60.7681 66.9056 61.103L63.2768 63.7825L67.0251 61.6193C67.5136 61.3313 68.1429 61.487 68.4523 61.9606C68.7637 62.4385 68.6443 63.0721 68.1856 63.4049L56.5739 71.8358L63.5285 67.8209C64.0277 67.5329 64.6592 67.6886 64.9664 68.1772C65.2715 68.6636 65.1371 69.3014 64.6613 69.6257L59.5883 73.0774C60.0107 72.9836 60.4608 73.1564 60.7083 73.5382C61.0197 74.014 60.9024 74.6476 60.4437 74.9825L49.9477 82.6369L50.6517 82.2316C51.1616 81.9329 51.8165 82.11 52.1088 82.622C52.4053 83.1318 52.2304 83.7846 51.7184 84.079L33.6875 94.4897C33.5211 94.5878 33.3355 94.6326 33.1541 94.6326H33.1499Z" fill="#4C70F2"/>
<path id="Vector_9" d="M84.1088 55.0036C83.7845 55.0036 83.4624 54.8543 83.2555 54.5769C82.9333 54.146 82.9824 53.5401 83.3728 53.1668L89.6491 47.1636L79.5541 52.9919C79.0848 53.2713 78.4747 53.1391 78.1525 52.6889C77.8347 52.2409 77.9072 51.6244 78.3189 51.2639L86.6752 43.9785L76.448 49.8836C75.9659 50.1652 75.3472 50.0201 75.0336 49.5636C74.72 49.1028 74.8117 48.4777 75.2469 48.13L82.1547 42.5812L74.9717 46.7263C74.4832 47.0121 73.8539 46.8585 73.5424 46.3828C73.2331 45.9049 73.3525 45.2713 73.8133 44.9385L74.3787 44.5332C73.9221 44.6825 73.4059 44.5289 73.1307 44.1129C72.8192 43.6393 72.9323 43.0057 73.3867 42.6708L74.3253 41.9753C73.9456 42.0521 73.5339 41.9177 73.2779 41.5935C72.9493 41.1817 72.9685 40.5887 73.3291 40.2025L77.3525 35.8783C76.8789 36.0468 76.3307 35.8612 76.0683 35.4068C75.7717 34.8969 75.9467 34.2441 76.4587 33.9497L82.4 30.5193C82.8523 30.2548 83.4347 30.3615 83.7675 30.7775C84.096 31.1892 84.0768 31.7823 83.7163 32.1684L79.7312 36.4543L89.0965 31.0484C89.5851 30.7625 90.2101 30.9161 90.5216 31.3855C90.8331 31.8591 90.72 32.4927 90.2656 32.8276L89.7067 33.2393L91.3771 32.2772C91.8656 31.9871 92.4928 32.1428 92.8064 32.6207C93.1157 33.0985 92.9963 33.7321 92.5355 34.0649L92.1109 34.3721L93.1328 33.7833C93.6128 33.4996 94.2315 33.6447 94.5472 34.1033C94.8608 34.5641 94.7691 35.1892 94.3339 35.5369L87.4304 41.0815L95.1253 36.6399C95.5968 36.3668 96.2069 36.4948 96.5269 36.9428C96.8448 37.3908 96.7723 38.0073 96.3605 38.3679L88.0064 45.6511L96.2603 40.8873C96.7232 40.6143 97.3227 40.7359 97.6469 41.1711C97.9691 41.602 97.92 42.2079 97.5296 42.5812L91.2491 48.5865L95.3451 46.2249C95.8507 45.9284 96.5077 46.1012 96.8021 46.6153C97.0987 47.1252 96.9237 47.778 96.4117 48.0724L84.6421 54.8671C84.4757 54.9652 84.2923 55.01 84.1088 55.01V55.0036Z" fill="#4C70F2"/>
<path id="Vector_10" d="M112.369 1.35444C86.1867 3.16137 63.872 20.3454 48.4971 40.6184C37.3867 34.4083 25.1349 41.043 18.0096 50.1779C12.6784 55.2531 -5.96907 71.3427 12.6933 70.404C20.8341 66.084 28.1429 58.6515 37.9072 57.9774C37.1563 60.1555 37.9307 61.8536 39.1509 63.332C37.6299 66.788 34.3125 69.9667 34.8395 73.9646C12.3776 80.9747 9.72587 107.818 0.776535 125.711C1.408 126.954 2.94827 126.959 4.10454 126.6C21.5979 116.19 48.0021 115.166 54.816 92.3902C58.208 92.2323 61.184 89.9198 64.1408 88.403C65.5381 89.5614 67.3237 89.9795 69.0603 89.6808C68.8043 100.243 60.1856 108.081 56.2645 116.975C58.9781 130.353 71.8571 117.094 76.3051 111.684C85.7963 103.582 96.0405 91.6222 87.5861 79.0931C101.227 68.9726 113.5 55.7566 120.745 40.2643C125.882 27.731 137.367 -4.32237 112.371 1.3587L112.369 1.35444ZM20.0085 64.1C16.8896 65.4632 14.2805 69.4014 10.8075 69.3886C7.232 68.5182 6.99307 63.9315 9.09653 61.6488C19.5307 52.4264 31.2 31.6712 47.1104 42.532C43.9595 46.9608 40.4331 51.6947 38.3381 56.8339C31.7675 57.5614 25.5531 60.6462 20.0085 64.1ZM40.6144 66.0755C40.7552 65.8216 40.8939 65.5678 41.0347 65.316C43.264 67.5198 45.4613 69.7512 47.68 71.9656C45.6128 73.9496 43.6181 76.0126 41.7259 78.148C36.9621 75.0291 37.28 70.212 40.6144 66.0755ZM66.208 62.1011C59.7568 75.0931 47.5264 87.1699 34.6816 93.7875C40.0768 80.228 53.4464 68.1406 66.2123 61.2776C66.2827 61.5635 66.2528 61.8088 66.208 62.1011ZM33.6896 96.0254C37.3163 96.1982 40.7637 93.2307 43.5243 91.268C39.4667 100.877 29.6747 105.606 20.1664 108.279C22.976 98.6152 27.2683 88.2558 37.0155 83.8312C35.7888 85.4227 27.7291 95.5262 33.6896 96.0254ZM37.0923 110.492C26.6005 116.431 13.9669 117.843 3.86347 124.584C13.6661 108.034 14.2677 82.6323 35.5136 75.6798C36.6464 77.4483 38.3829 78.8286 39.8251 80.3603C39.6011 80.627 39.3707 80.8915 39.1488 81.1603C26.0416 84.9192 19.9125 97.8643 16.6037 110.026C28.2112 110.357 44.0405 100.695 47.6608 88.1363C49.056 89.4504 50.2571 91.0376 52.0107 91.8568C49.6448 99.78 44.1643 106.272 37.0901 110.489L37.0923 110.492ZM58.0011 90.2931C57.1435 90.8414 56.224 91.2744 55.2043 90.8776C53.0773 89.9731 51.4432 87.8654 49.7237 86.2142C51.8656 84.2856 53.9627 82.3166 55.9552 80.2451C58.4277 82.6686 60.6208 84.9342 63.0763 87.4835C61.3845 88.42 59.6928 89.3566 58.0011 90.2931ZM83.3813 101.608C78.8075 104.574 60.0661 131.494 59.4795 115.716C64.3904 107.379 71.9147 99.0056 72.1984 88.6846C76.7851 86.3422 80.8683 83.8099 85.0411 80.915C88.8064 87.4195 88.3413 95.7822 83.3813 101.606V101.608ZM99.04 66.4339C90.7861 74.7006 81.3973 82.052 70.8928 87.2467C65.248 88.979 62.0715 80.9384 57.9648 78.1544C77.1883 58.7027 69.2544 51.5603 49.7707 69.9966C47.1296 67.4536 44.3861 64.9384 42.0139 62.18C38.5451 46.4552 72.6912 16.6206 86.7093 10.1886C96.9579 20.4371 107.204 30.6856 117.453 40.9342C112.915 50.4019 106.453 59.0078 99.04 66.4339ZM124.126 16.9427C123.529 24.3219 121.615 31.4024 118.737 38.0883C108.998 28.3496 99.2597 18.611 89.5232 8.8723C99.1659 4.6483 110.123 2.04563 120.717 3.32564C126.3 4.76564 123.819 12.627 124.126 16.9427Z" fill="#23233D"/>
<path id="Vector_11" d="M84.0832 30.0333C72.544 30.9144 67.8933 47.1106 78.1077 53.2354C98.3381 64.3288 107.797 28.8728 84.0832 30.0333ZM92.2325 50.2445C79.7035 61.3592 67.2149 36.5613 83.1403 32.4674C92.9173 30.253 99.4069 43.5373 92.2325 50.2445Z" fill="#23233D"/>
</g>
</svg>
